<mxfile host="app.diagrams.net" agent="Mozilla/5.0 (Windows NT 10.0; Win64; x64) AppleWebKit/537.36 (KHTML, like Gecko) Chrome/131.0.0.0 Safari/537.36" version="24.7.16">
  <diagram name="Page-1" id="EY2AdRhe_pBsfSES2OIL">
    <mxGraphModel dx="797" dy="368" grid="1" gridSize="10" guides="1" tooltips="1" connect="1" arrows="1" fold="1" page="1" pageScale="1" pageWidth="1169" pageHeight="827" math="0" shadow="0">
      <root>
        <mxCell id="0" />
        <mxCell id="1" parent="0" />
        <mxCell id="YSGS61guT7fk4eBr2PcB-1" value="Stock" style="swimlane;whiteSpace=wrap;html=1;" vertex="1" parent="1">
          <mxGeometry x="170" y="140" width="240" height="280" as="geometry" />
        </mxCell>
        <mxCell id="YSGS61guT7fk4eBr2PcB-2" value="-symbol : String" style="text;html=1;align=center;verticalAlign=middle;resizable=0;points=[];autosize=1;strokeColor=none;fillColor=none;" vertex="1" parent="YSGS61guT7fk4eBr2PcB-1">
          <mxGeometry y="30" width="110" height="30" as="geometry" />
        </mxCell>
        <mxCell id="YSGS61guT7fk4eBr2PcB-3" value="-name : String" style="text;html=1;align=center;verticalAlign=middle;resizable=0;points=[];autosize=1;strokeColor=none;fillColor=none;" vertex="1" parent="YSGS61guT7fk4eBr2PcB-1">
          <mxGeometry x="1" y="50" width="100" height="30" as="geometry" />
        </mxCell>
        <mxCell id="YSGS61guT7fk4eBr2PcB-5" value="&lt;u&gt;-currentPrice : double&lt;/u&gt;" style="text;html=1;align=center;verticalAlign=middle;resizable=0;points=[];autosize=1;strokeColor=none;fillColor=none;" vertex="1" parent="YSGS61guT7fk4eBr2PcB-1">
          <mxGeometry x="1" y="87" width="140" height="30" as="geometry" />
        </mxCell>
        <mxCell id="YSGS61guT7fk4eBr2PcB-6" value="+Stock()" style="text;html=1;align=center;verticalAlign=middle;resizable=0;points=[];autosize=1;strokeColor=none;fillColor=none;" vertex="1" parent="YSGS61guT7fk4eBr2PcB-1">
          <mxGeometry x="1" y="125" width="70" height="30" as="geometry" />
        </mxCell>
        <mxCell id="YSGS61guT7fk4eBr2PcB-7" value="+Stock(name:String, symbol:String)" style="text;html=1;align=center;verticalAlign=middle;resizable=0;points=[];autosize=1;strokeColor=none;fillColor=none;" vertex="1" parent="YSGS61guT7fk4eBr2PcB-1">
          <mxGeometry x="3" y="144" width="210" height="30" as="geometry" />
        </mxCell>
        <mxCell id="YSGS61guT7fk4eBr2PcB-4" value="&lt;u&gt;-previousClosingPrice : double&lt;/u&gt;" style="text;html=1;align=center;verticalAlign=middle;resizable=0;points=[];autosize=1;strokeColor=none;fillColor=none;" vertex="1" parent="1">
          <mxGeometry x="170" y="208" width="190" height="30" as="geometry" />
        </mxCell>
        <mxCell id="YSGS61guT7fk4eBr2PcB-8" value="" style="endArrow=none;html=1;rounded=0;" edge="1" parent="1">
          <mxGeometry width="50" height="50" relative="1" as="geometry">
            <mxPoint x="170" y="261" as="sourcePoint" />
            <mxPoint x="410" y="261" as="targetPoint" />
          </mxGeometry>
        </mxCell>
        <mxCell id="YSGS61guT7fk4eBr2PcB-11" value="+setPreviousClosingPrice() : double" style="text;html=1;align=center;verticalAlign=middle;resizable=0;points=[];autosize=1;strokeColor=none;fillColor=none;" vertex="1" parent="1">
          <mxGeometry x="172" y="347" width="210" height="30" as="geometry" />
        </mxCell>
        <mxCell id="YSGS61guT7fk4eBr2PcB-9" value="&lt;u&gt;+getChangePercent() : double&lt;/u&gt;" style="text;html=1;align=center;verticalAlign=middle;resizable=0;points=[];autosize=1;strokeColor=none;fillColor=none;" vertex="1" parent="1">
          <mxGeometry x="174" y="303" width="180" height="30" as="geometry" />
        </mxCell>
        <mxCell id="YSGS61guT7fk4eBr2PcB-10" value="&lt;u&gt;+getPreviousClosingPrice() : double&lt;/u&gt;" style="text;html=1;align=center;verticalAlign=middle;resizable=0;points=[];autosize=1;strokeColor=none;fillColor=none;" vertex="1" parent="1">
          <mxGeometry x="169" y="325" width="220" height="30" as="geometry" />
        </mxCell>
        <mxCell id="YSGS61guT7fk4eBr2PcB-12" value="&lt;u&gt;+getCurrentPrice() : double&lt;/u&gt;" style="text;html=1;align=center;verticalAlign=middle;resizable=0;points=[];autosize=1;strokeColor=none;fillColor=none;" vertex="1" parent="1">
          <mxGeometry x="169" y="365" width="170" height="30" as="geometry" />
        </mxCell>
        <mxCell id="YSGS61guT7fk4eBr2PcB-13" value="+setCurrentPrice() : double" style="text;html=1;align=center;verticalAlign=middle;resizable=0;points=[];autosize=1;strokeColor=none;fillColor=none;" vertex="1" parent="1">
          <mxGeometry x="168" y="387" width="170" height="30" as="geometry" />
        </mxCell>
      </root>
    </mxGraphModel>
  </diagram>
</mxfile>
